<?xml version="1.0" encoding="utf-8"?>
<!-- Generator: Adobe Illustrator 16.0.0, SVG Export Plug-In . SVG Version: 6.00 Build 0)  -->
<!DOCTYPE svg PUBLIC "-//W3C//DTD SVG 1.1//EN" "http://www.w3.org/Graphics/SVG/1.1/DTD/svg11.dtd">
<svg version="1.1" id="Layer_1" xmlns="http://www.w3.org/2000/svg" xmlns:xlink="http://www.w3.org/1999/xlink" x="0px" y="0px"
	 width="370px" height="83px" viewBox="0 0 370 83" enable-background="new 0 0 370 83" xml:space="preserve">
<path fill="#1A459C" d="M43.065,2.055c-21.797,0-39.464,17.669-39.464,39.464c0,21.795,17.673,39.465,39.464,39.465
	c21.792,0,39.463-17.67,39.463-39.465C82.528,19.725,64.875,2.055,43.065,2.055z M46.035,77.976
	C26.149,77.973,10.03,61.851,10.031,41.965c0-19.887,16.121-36.01,36.01-36.01c19.888,0,36.009,16.123,36.009,36.01
	s-16.123,36.01-36.009,36.01L46.035,77.976z"/>
<path fill="#1A459C" d="M49.47,9.652c-18.119,0-32.807,14.688-32.807,32.806S31.352,75.265,49.47,75.265
	s32.807-14.688,32.807-32.807l0,0C82.276,24.34,67.588,9.653,49.47,9.652z M51.939,72.761C35.406,72.762,22.002,59.36,22.001,42.827
	C22,26.292,35.402,12.889,51.936,12.888s29.938,13.401,29.938,29.934c0,0.003,0,0.006,0,0.009
	C81.871,59.361,68.47,72.76,51.939,72.761z"/>
<path fill="#1A459C" d="M56.501,41.581h-1.974l3.998,22.198l4.755-6.951l-2.031-11.281C60.834,43.25,58.835,41.58,56.501,41.581z"/>
<polygon fill="#1A459C" points="86.327,52.071 89.425,47.542 71.914,47.542 68.816,52.071 "/>
<polygon fill="#1A459C" points="82.242,58.045 85.342,53.514 67.829,53.514 64.731,58.045 "/>
<path fill="#1A459C" d="M79.595,61.915l1.661-2.428H63.745l-3.098,4.531h14.964C77.205,64.017,78.696,63.231,79.595,61.915z"/>
<path fill="#1A459C" d="M90.411,46.099l3.1-4.531H78.544c-1.594,0-3.084,0.788-3.984,2.103l-1.661,2.428H90.411z"/>
<path fill="#1A459C" d="M40.857,18.906c-5.075,0.001-9.188,4.116-9.187,9.191c-0.002,2.768,2.24,5.013,5.008,5.016
	c0.002,0,0.005,0,0.008,0h10.079c0.219,0,0.429,0.087,0.583,0.243c0.156,0.155,0.243,0.365,0.244,0.584
	c0.002,0.85-0.686,1.542-1.537,1.544c-0.001,0-0.002,0-0.004,0H33.105c-1.524,0-2.951,0.751-3.814,2.009l-2.683,3.916H45.69
	c5.075,0,9.189-4.114,9.189-9.189c0,0,0-0.001,0-0.001c0.003-2.771-2.238-5.02-5.009-5.024c-0.006,0-0.012,0-0.018,0H39.512
	c-0.458-0.001-0.829-0.371-0.832-0.83c-0.001-0.852,0.688-1.543,1.541-1.544c0,0,0.001,0,0.002,0h11.664
	c1.525,0,2.954-0.751,3.817-2.009l2.681-3.913L40.857,18.906z"/>
<path fill="#1A459C" d="M111.024,41.411h-3.791l-9.02,16.522h4.695l1.854-3.57h8.599l1.853,3.57h4.983L111.024,41.411z
	 M111.318,50.497h-4.479l2.238-4.263L111.318,50.497z"/>
<polygon fill="#1A459C" points="307.229,54.677 307.229,52.833 312.902,52.833 312.902,49.752 307.229,49.752 307.229,48.242 
	316.962,48.242 316.962,45.106 303.285,45.106 303.285,57.929 317.107,57.929 317.107,54.677 "/>
<path fill="#1A459C" d="M330.416,53.484h0.113c1.11,0,1.911-0.215,2.449-0.652c0.54-0.438,0.821-1.169,0.821-2.128v-2.789
	c0-0.964-0.283-1.691-0.84-2.161c-0.556-0.47-1.287-0.648-2.445-0.648h-11.1v12.819h3.858v-4.44h1.98l4.931,4.449h5.812
	L330.416,53.484z M330.086,50.078c0,0.177-0.144,0.319-0.319,0.319l0,0h-6.485v-2.21h6.485c0.178,0.001,0.32,0.146,0.319,0.323l0,0
	V50.078z"/>
<polygon fill="#1A459C" points="352.518,45.106 348.323,45.106 343.917,53.113 339.246,45.106 334.76,45.106 342.52,57.929 
	345.09,57.929 "/>
<path fill="#1A459C" d="M358.661,45.111h-3.345l-7.605,12.822h4.089l1.476-2.579h7.188l1.472,2.579h4.464L358.661,45.111z
	 M358.699,52.155h-3.624l1.773-3.285L358.699,52.155z"/>
<path fill="#1A459C" d="M132.768,45.111v9.57h-7.141v-9.57h-3.894v9.512c0,1.256,0.255,2.101,0.779,2.584
	c0.524,0.483,1.439,0.727,2.779,0.727h7.789c1.363,0,2.28-0.237,2.802-0.725c0.521-0.487,0.813-1.375,0.813-2.586v-9.512H132.768z"
	/>
<polygon fill="#1A459C" points="139.029,45.106 139.029,48.267 144.699,48.267 144.699,57.929 148.617,57.929 148.617,48.267 
	154.322,48.267 154.322,45.106 "/>
<path fill="#1A459C" d="M169.321,45.111h-9.101c-1.363,0-2.278,0.237-2.802,0.727c-0.524,0.488-0.779,1.333-0.779,2.583v6.188
	c0,1.257,0.255,2.101,0.779,2.586c0.524,0.484,1.447,0.724,2.802,0.724h9.101c1.34,0,2.251-0.237,2.785-0.724
	c0.533-0.487,0.814-1.363,0.814-2.586V48.42c0-1.243-0.269-2.089-0.791-2.585C171.607,45.338,170.671,45.111,169.321,45.111z
	 M168.996,48.299v6.327h-8.441v-6.331L168.996,48.299z"/>
<polygon fill="#1A459C" points="189.308,45.106 183.821,51.792 178.283,45.106 175.228,45.106 175.228,57.929 178.559,57.929 
	178.559,50.964 183.133,56.508 184.192,56.508 188.671,50.822 188.671,57.929 192.39,57.929 192.39,45.106 "/>
<polygon fill="#1A459C" points="213.297,45.106 213.297,48.267 218.97,48.267 218.97,57.929 222.886,57.929 222.886,48.267 
	228.591,48.267 228.591,45.106 "/>
<rect x="248.833" y="45.106" fill="#1A459C" width="3.889" height="12.82"/>
<polygon fill="#1A459C" points="255.899,45.106 255.899,48.267 262.891,48.267 255.039,55.904 255.039,57.929 269.36,57.929 
	269.36,54.711 261.344,54.711 269.36,47.021 269.36,45.106 "/>
<path fill="#1A459C" d="M241.912,53.484h0.116c1.107,0,1.911-0.215,2.447-0.652c0.538-0.438,0.82-1.169,0.82-2.128v-2.789
	c0-0.964-0.282-1.691-0.84-2.161c-0.557-0.47-1.287-0.648-2.443-0.648h-11.1v12.819h3.868v-4.44h1.98l4.923,4.442h5.813
	L241.912,53.484z M241.585,50.083c0,0.177-0.144,0.319-0.319,0.319l0,0h-6.484v-2.216h6.484c0.177,0.001,0.32,0.146,0.319,0.323l0,0
	V50.083z"/>
<path fill="#1A459C" d="M208.426,45.111h-11.141c-1.42,0.001-2.571,1.151-2.573,2.572v7.667c0.002,1.421,1.152,2.57,2.573,2.57
	h11.141c1.418,0.001,2.568-1.146,2.569-2.566c0-0.001,0-0.002,0-0.004v-7.671C210.995,46.26,209.844,45.111,208.426,45.111z
	 M207.063,54.626h-8.45v-6.331h8.45V54.626z"/>
<path fill="#1A459C" d="M288.137,41.411c-3.419-0.049-6.232,2.682-6.281,6.103c-0.003,0.209,0.005,0.42,0.023,0.63
	c0.166,2.042,1.858,3.624,3.907,3.652h8.99c0.183-0.001,0.359,0.069,0.491,0.194c0.134,0.123,0.218,0.293,0.232,0.476
	c0.024,0.314-0.083,0.626-0.296,0.858c-0.215,0.229-0.517,0.357-0.83,0.354h-10.733c-1.083-0.014-2.092,0.54-2.664,1.459
	l-1.714,2.794h14.955c3.419,0.05,6.232-2.681,6.283-6.101c0.004-0.211-0.004-0.423-0.022-0.633c-0.169-2.043-1.862-3.622-3.91-3.651
	h-8.989c-0.382-0.005-0.696-0.303-0.723-0.683c-0.053-0.615,0.403-1.155,1.018-1.208c0.036-0.004,0.072-0.004,0.108-0.004h10.731
	c1.082,0.015,2.092-0.538,2.664-1.457l1.723-2.796L288.137,41.411z"/>
</svg>
