<?xml version="1.0" encoding="utf-8"?>
<!-- Generator: Adobe Illustrator 16.0.0, SVG Export Plug-In . SVG Version: 6.00 Build 0)  -->
<!DOCTYPE svg PUBLIC "-//W3C//DTD SVG 1.1//EN" "http://www.w3.org/Graphics/SVG/1.1/DTD/svg11.dtd">
<svg version="1.1" id="Layer_1" xmlns="http://www.w3.org/2000/svg" xmlns:xlink="http://www.w3.org/1999/xlink" x="0px" y="0px"
	 width="240px" height="213.152px" viewBox="0 0 240 213.152" enable-background="new 0 0 240 213.152" xml:space="preserve">
<path fill="#FFFFFF" d="M109.088,1.235c-49.458,0-89.554,40.095-89.554,89.552c0,49.459,40.095,89.554,89.554,89.554
	s89.552-40.1,89.552-89.554C198.641,41.334,158.551,1.235,109.088,1.235z M115.825,173.513c-45.13-0.002-81.713-36.589-81.71-81.72
	s36.59-81.713,81.72-81.711c45.126,0.003,81.708,36.584,81.71,81.711c0.005,45.127-36.573,81.715-81.701,81.72
	C115.838,173.513,115.832,173.513,115.825,173.513z"/>
<path fill="#FFFFFF" d="M123.609,18.473c-41.116,0-74.448,33.331-74.448,74.448s33.332,74.448,74.448,74.448
	s74.448-33.331,74.448-74.448c0-0.002,0-0.003,0-0.005C198.055,51.802,164.723,18.473,123.609,18.473z M129.214,161.691
	c-37.51,0-67.919-30.408-67.919-67.918c0-37.511,30.409-67.919,67.919-67.919c37.511,0,67.92,30.408,67.92,67.919
	C197.134,131.283,166.725,161.691,129.214,161.691L129.214,161.691z"/>
<path fill="#FFFFFF" d="M139.561,90.923h-4.474l9.056,50.387l10.79-15.78l-4.591-25.587
	C149.406,94.723,144.864,90.923,139.561,90.923z"/>
<polygon fill="#FFFFFF" points="207.248,114.737 214.28,104.453 174.539,104.453 167.507,114.737 "/>
<polygon fill="#FFFFFF" points="197.979,128.288 205.012,118.005 165.271,118.005 158.243,128.288 "/>
<path fill="#FFFFFF" d="M191.971,137.073l3.773-5.515h-39.737l-7.032,10.283h33.959
	C186.549,141.842,189.931,140.058,191.971,137.073z"/>
<path fill="#FFFFFF" d="M216.518,101.18l7.031-10.278h-33.96c-3.621-0.005-7.011,1.78-9.055,4.768l-3.771,5.51H216.518z"/>
<path fill="#FFFFFF" d="M104.053,39.473c-11.508,0.016-20.828,9.349-20.828,20.856c-0.003,6.284,5.089,11.381,11.373,11.383
	c0.003,0,0.007,0,0.01,0h22.884c1.04,0.002,1.881,0.844,1.884,1.884c0.002,1.933-1.563,3.502-3.496,3.504c-0.001,0-0.003,0-0.005,0
	H86.48c-3.46,0-6.699,1.706-8.657,4.56l-6.085,8.875h43.282c11.518-0.002,20.853-9.341,20.851-20.86l0,0
	c0.005-6.285-5.085-11.383-11.369-11.388c-0.006,0-0.013,0-0.019,0h-23.468c-1.041-0.005-1.881-0.848-1.884-1.888
	c0-1.931,1.564-3.498,3.495-3.5h26.47c3.46,0,6.7-1.705,8.658-4.559l6.09-8.879L104.053,39.473z"/>
<path fill="#FFFFFF" d="M15.039,198.874h-3.264l-7.788,14.269h4.075l1.603-3.084h7.417l1.599,3.084h4.301L15.039,198.874z
	 M15.292,206.716h-3.866l1.929-3.677L15.292,206.716z"/>
<polygon fill="#FFFFFF" points="184.428,210.33 184.428,208.735 189.323,208.735 189.323,206.078 184.428,206.078 184.428,204.774 
	192.828,204.774 192.828,202.066 181.023,202.066 181.023,213.136 192.954,213.136 192.954,210.33 "/>
<path fill="#FFFFFF" d="M204.441,209.292h0.1c0.748,0.061,1.494-0.138,2.114-0.562c0.503-0.473,0.764-1.149,0.706-1.839v-2.398
	c0.054-0.699-0.212-1.387-0.724-1.866c-0.453-0.389-1.111-0.562-2.112-0.562h-9.583v11.076h3.341v-3.85h1.708l4.255,3.844h5.016
	L204.441,209.292z M204.16,206.358c0,0.153-0.123,0.276-0.274,0.276l0,0h-5.598v-1.905h5.598c0.152,0,0.274,0.123,0.274,0.275l0,0
	V206.358z"/>
<polygon fill="#FFFFFF" points="223.522,202.066 219.9,202.066 216.095,208.98 212.066,202.066 208.195,202.066 214.892,213.136 
	217.11,213.136 "/>
<path fill="#FFFFFF" d="M228.83,202.066h-2.89l-6.564,11.076h3.53l1.272-2.229h6.204l1.267,2.229h3.854L228.83,202.066z
	 M228.861,208.148h-3.128l1.53-2.835L228.861,208.148z"/>
<path fill="#FFFFFF" d="M33.816,202.066v8.264h-6.159v-8.264h-3.359v8.214c0,1.083,0.217,1.812,0.67,2.232
	c0.453,0.421,1.245,0.624,2.399,0.624h6.728c1.178,0,1.97-0.203,2.423-0.624c0.453-0.421,0.702-1.187,0.702-2.232v-8.214H33.816z"/>
<polygon fill="#FFFFFF" points="39.222,202.066 39.222,204.796 44.117,204.796 44.117,213.136 47.499,213.136 47.499,204.796 
	52.426,204.796 52.426,202.066 "/>
<path fill="#FFFFFF" d="M65.372,202.066h-7.856c-1.177,0-1.965,0.209-2.418,0.63c-0.453,0.421-0.674,1.15-0.674,2.232v5.338
	c0,1.086,0.221,1.812,0.674,2.233c0.453,0.42,1.25,0.625,2.418,0.625h7.856c1.159,0,1.942-0.205,2.403-0.625
	c0.463-0.422,0.707-1.179,0.707-2.233v-5.338c0-1.077-0.235-1.813-0.683-2.238C67.35,202.265,66.54,202.066,65.372,202.066z
	 M65.09,204.818v5.467h-7.286v-5.467H65.09z"/>
<polygon fill="#FFFFFF" points="82.627,202.066 77.891,207.839 73.109,202.066 70.474,202.066 70.474,213.136 73.349,213.136 
	73.349,207.124 77.297,211.909 78.212,211.909 82.079,207.001 82.079,213.136 85.29,213.136 85.29,202.066 "/>
<polygon fill="#FFFFFF" points="103.337,202.066 103.337,204.796 108.232,204.796 108.232,213.136 111.614,213.136 111.614,204.796 
	116.541,204.796 116.541,202.066 "/>
<rect x="134.014" y="202.066" fill="#FFFFFF" width="3.355" height="11.065"/>
<polygon fill="#FFFFFF" points="140.114,202.066 140.114,204.796 146.149,204.796 139.371,211.389 139.371,213.136 151.736,213.136 
	151.736,210.362 144.813,210.362 151.736,203.718 151.736,202.066 "/>
<path fill="#FFFFFF" d="M128.051,209.292h0.095c0.748,0.062,1.495-0.137,2.114-0.562c0.504-0.473,0.764-1.149,0.707-1.839v-2.398
	c0.053-0.699-0.213-1.387-0.725-1.866c-0.452-0.389-1.109-0.562-2.11-0.562h-9.59v11.076h3.337v-3.85h1.707l4.257,3.844h5.021
	L128.051,209.292z M127.765,206.358c0,0.153-0.123,0.276-0.275,0.276l0,0h-5.597v-1.905h5.597c0.152,0,0.275,0.123,0.275,0.275l0,0
	V206.358z"/>
<path fill="#FFFFFF" d="M99.131,202.066h-9.617c-1.226,0-2.219,0.993-2.219,2.22c0,0,0,0.002,0,0.004v6.62
	c0,1.224,0.994,2.218,2.219,2.218h9.617c1.225,0,2.218-0.994,2.218-2.218v-6.62c0.002-1.226-0.988-2.222-2.214-2.224
	C99.134,202.066,99.133,202.066,99.131,202.066z M97.963,210.285h-7.294v-5.467h7.294V210.285z"/>
<path fill="#FFFFFF" d="M167.947,198.874c-2.954-0.043-5.382,2.315-5.426,5.269c-0.002,0.181,0.004,0.361,0.02,0.541
	c0.14,1.771,1.603,3.142,3.377,3.17h7.761c0.158-0.001,0.31,0.062,0.421,0.172c0.117,0.105,0.188,0.251,0.2,0.407
	c0.05,0.525-0.335,0.992-0.861,1.042c-0.036,0.003-0.072,0.005-0.108,0.004h-9.264c-0.934-0.011-1.806,0.467-2.301,1.26
	l-1.489,2.413h12.914c2.949,0.047,5.375-2.307,5.423-5.254c0.001-0.186-0.005-0.371-0.021-0.557
	c-0.136-1.769-1.599-3.144-3.373-3.169h-7.774c-0.159,0-0.31-0.06-0.425-0.167c-0.115-0.109-0.186-0.256-0.199-0.412
	c-0.021-0.273,0.072-0.542,0.257-0.743c0.186-0.196,0.445-0.307,0.716-0.303h9.264c0.934,0.011,1.806-0.467,2.299-1.259l1.485-2.414
	H167.947z"/>
</svg>
